<svg xmlns="http://www.w3.org/2000/svg" viewBox="0 0 1200 370" role="img" font-family="Arial,sans-serif"><title>Mô hình sinh viên có hành động</title><desc>Năm trạng thái: Facebook, C1, C2, C3, Sleep. Pub tại C3 nhận +1 và qua nút ngẫu nhiên tới C1/C2/C3 với xác suất 0,2/0,4/0,4. Các hành động còn lại có chuyển tiếp tất định.</desc><defs><marker id="arrow" viewBox="0 0 10 10" markerWidth="6" markerHeight="6" refX="9" refY="5" orient="auto"><path d="M0 0L10 5L0 10Z" fill="#2f3e7a"/></marker></defs><path d="M322 108H201" fill="none" stroke="#2f3e7a" stroke-width="3" marker-end="url(#arrow)"/><path d="M200 134H322" fill="none" stroke="#2f3e7a" stroke-width="3" marker-end="url(#arrow)"/><path d="M80 88C5 20 240 20 168 88" fill="none" stroke="#2f3e7a" stroke-width="3" marker-end="url(#arrow)"/><path d="M418 120H532" fill="none" stroke="#2f3e7a" stroke-width="3" marker-end="url(#arrow)"/><path d="M628 120H742" fill="none" stroke="#2f3e7a" stroke-width="3" marker-end="url(#arrow)"/><path d="M838 108H1048" fill="none" stroke="#2f3e7a" stroke-width="3" marker-end="url(#arrow)"/><path d="M590 72Q610 38 660 38H1090Q1110 38 1110 85" fill="none" stroke="#2f3e7a" stroke-width="3" marker-end="url(#arrow)"/><path d="M811 163Q955 275 800 307" fill="none" stroke="#2f3e7a" stroke-width="3" marker-end="url(#arrow)"/><path d="M780 310H385Q350 310 354 167" fill="none" stroke="#2f3e7a" stroke-width="3" marker-end="url(#arrow)"/><path d="M781 306Q640 335 593 168" fill="none" stroke="#2f3e7a" stroke-width="3" marker-end="url(#arrow)"/><path d="M790 300V169" fill="none" stroke="#2f3e7a" stroke-width="3" marker-end="url(#arrow)"/><rect x="40" y="88" width="160" height="64" rx="7" fill="#edf4ff" stroke="#2f3e7a" stroke-width="3"/><text x="120.0" y="130.0" font-size="28" text-anchor="middle" fill="#17213f">Facebook</text><circle cx="370" cy="120" r="48" fill="#edf4ff" stroke="#2f3e7a" stroke-width="3"/><text x="370" y="130" font-size="30" text-anchor="middle" fill="#17213f">C1</text><circle cx="580" cy="120" r="48" fill="#edf4ff" stroke="#2f3e7a" stroke-width="3"/><text x="580" y="130" font-size="30" text-anchor="middle" fill="#17213f">C2</text><circle cx="790" cy="120" r="48" fill="#edf4ff" stroke="#2f3e7a" stroke-width="3"/><text x="790" y="130" font-size="30" text-anchor="middle" fill="#17213f">C3</text><rect x="1050" y="85" width="130" height="70" rx="7" fill="#edf4ff" stroke="#2f3e7a" stroke-width="3"/><text x="1115.0" y="130.0" font-size="28" text-anchor="middle" fill="#17213f">Sleep</text><circle cx="790" cy="310" r="10" fill="#17213f"/><text x="260" y="87" font-size="24" text-anchor="middle" fill="#17213f">Facebook · −1</text><text x="260" y="170" font-size="24" text-anchor="middle" fill="#17213f">Quit · 0</text><text x="137" y="29" font-size="24" text-anchor="middle" fill="#17213f">Facebook · −1</text><text x="475" y="91" font-size="24" text-anchor="middle" fill="#17213f">Study · −2</text><text x="682" y="91" font-size="24" text-anchor="middle" fill="#17213f">Study · −2</text><text x="945" y="87" font-size="24" text-anchor="middle" fill="#17213f">Study · +10</text><text x="875" y="25" font-size="24" text-anchor="middle" fill="#17213f">Sleep · 0</text><text x="965" y="230" font-size="24" text-anchor="middle" fill="#17213f">Pub · +1</text><text x="495" y="297" font-size="24" text-anchor="middle" fill="#17213f">0,2</text><text x="665" y="250" font-size="24" text-anchor="middle" fill="#17213f">0,4</text><text x="754" y="240" font-size="24" text-anchor="middle" fill="#17213f">0,4</text><text x="790" y="352" font-size="25" text-anchor="middle" fill="#17213f">nút ngẫu nhiên</text></svg>