<svg xmlns="http://www.w3.org/2000/svg" viewBox="0 0 760 520" role="img" aria-labelledby="title desc"><title id="title">Đường đi bảy bước theo chính sách</title><desc id="desc">Từ (2,1), đi Đông bốn bước rồi Bắc ba bước tới (6,4). Tường tại (3,3) và (5,2). Các bước đánh số từ 0 đến 7.</desc><g font-family="sans-serif" text-anchor="middle"><rect x="70" y="360" width="100" height="100" fill="#fff" stroke="#2F3E7A" stroke-width="3"/><rect x="70" y="260" width="100" height="100" fill="#fff" stroke="#2F3E7A" stroke-width="3"/><rect x="70" y="160" width="100" height="100" fill="#fff" stroke="#2F3E7A" stroke-width="3"/><rect x="70" y="60" width="100" height="100" fill="#fff" stroke="#2F3E7A" stroke-width="3"/><rect x="170" y="360" width="100" height="100" fill="#fff" stroke="#2F3E7A" stroke-width="3"/><rect x="170" y="260" width="100" height="100" fill="#fff" stroke="#2F3E7A" stroke-width="3"/><rect x="170" y="160" width="100" height="100" fill="#fff" stroke="#2F3E7A" stroke-width="3"/><rect x="170" y="60" width="100" height="100" fill="#fff" stroke="#2F3E7A" stroke-width="3"/><rect x="270" y="360" width="100" height="100" fill="#fff" stroke="#2F3E7A" stroke-width="3"/><rect x="270" y="260" width="100" height="100" fill="#fff" stroke="#2F3E7A" stroke-width="3"/><rect x="270" y="160" width="100" height="100" fill="#666" stroke="#2F3E7A" stroke-width="3"/><rect x="270" y="60" width="100" height="100" fill="#fff" stroke="#2F3E7A" stroke-width="3"/><rect x="370" y="360" width="100" height="100" fill="#fff" stroke="#2F3E7A" stroke-width="3"/><rect x="370" y="260" width="100" height="100" fill="#fff" stroke="#2F3E7A" stroke-width="3"/><rect x="370" y="160" width="100" height="100" fill="#fff" stroke="#2F3E7A" stroke-width="3"/><rect x="370" y="60" width="100" height="100" fill="#fff" stroke="#2F3E7A" stroke-width="3"/><rect x="470" y="360" width="100" height="100" fill="#fff" stroke="#2F3E7A" stroke-width="3"/><rect x="470" y="260" width="100" height="100" fill="#666" stroke="#2F3E7A" stroke-width="3"/><rect x="470" y="160" width="100" height="100" fill="#fff" stroke="#2F3E7A" stroke-width="3"/><rect x="470" y="60" width="100" height="100" fill="#fff" stroke="#2F3E7A" stroke-width="3"/><rect x="570" y="360" width="100" height="100" fill="#fff" stroke="#2F3E7A" stroke-width="3"/><rect x="570" y="260" width="100" height="100" fill="#fff" stroke="#2F3E7A" stroke-width="3"/><rect x="570" y="160" width="100" height="100" fill="#fff" stroke="#2F3E7A" stroke-width="3"/><rect x="570" y="60" width="100" height="100" fill="#fff" stroke="#2F3E7A" stroke-width="3"/><text x="120" y="42" font-size="27">x=1</text><text x="220" y="42" font-size="27">x=2</text><text x="320" y="42" font-size="27">x=3</text><text x="420" y="42" font-size="27">x=4</text><text x="520" y="42" font-size="27">x=5</text><text x="620" y="42" font-size="27">x=6</text><text x="32" y="420" font-size="27">y=1</text><text x="32" y="320" font-size="27">y=2</text><text x="32" y="220" font-size="27">y=3</text><text x="32" y="120" font-size="27">y=4</text><polyline points="220,410 320,410 420,410 520,410 620,410 620,310 620,210 620,110" fill="none" stroke="#B15A2B" stroke-width="9" stroke-dasharray="12 6"/><circle cx="220" cy="410" r="24" fill="#2F3E7A"/><text x="220" y="420" font-size="30" fill="white">0</text><circle cx="320" cy="410" r="24" fill="#2F3E7A"/><text x="320" y="420" font-size="30" fill="white">1</text><circle cx="420" cy="410" r="24" fill="#2F3E7A"/><text x="420" y="420" font-size="30" fill="white">2</text><circle cx="520" cy="410" r="24" fill="#2F3E7A"/><text x="520" y="420" font-size="30" fill="white">3</text><circle cx="620" cy="410" r="24" fill="#2F3E7A"/><text x="620" y="420" font-size="30" fill="white">4</text><circle cx="620" cy="310" r="24" fill="#2F3E7A"/><text x="620" y="320" font-size="30" fill="white">5</text><circle cx="620" cy="210" r="24" fill="#2F3E7A"/><text x="620" y="220" font-size="30" fill="white">6</text><circle cx="620" cy="110" r="24" fill="#2F3E7A"/><text x="620" y="120" font-size="30" fill="white">7</text><text x="380" y="503" font-size="30">0: bắt đầu · 7: đích</text></g></svg>